<svg xmlns="http://www.w3.org/2000/svg" width="755.1" height="380" viewBox="0 0 755.1 380"><path d="M686.4,164V153.7a1.9,1.9,0,0,0-1.9-1.8h-2.6a1.6,1.6,0,0,1-1.6-1.3,36.2,36.2,0,0,0-4.6-11.1,1.8,1.8,0,0,1,.2-2.1l1.9-1.8a1.9,1.9,0,0,0,0-2.6l-7.3-7.2a1.8,1.8,0,0,0-2.5,0l-1.9,1.8a1.7,1.7,0,0,1-2.1.3,35.2,35.2,0,0,0-11.1-4.6,1.7,1.7,0,0,1-1.2-1.6V119a1.8,1.8,0,0,0-1.9-1.8H639.6a1.8,1.8,0,0,0-1.8,1.8v2.7a1.7,1.7,0,0,1-1.3,1.6,36.2,36.2,0,0,0-11.1,4.6,1.7,1.7,0,0,1-2.1-.3l-1.8-1.8a1.9,1.9,0,0,0-2.6,0l-7.2,7.2a1.7,1.7,0,0,0,0,2.6l1.8,1.8a1.7,1.7,0,0,1,.2,2.1,36,36,0,0,0-4.5,11.1,1.7,1.7,0,0,1-1.7,1.3h-2.6a1.8,1.8,0,0,0-1.8,1.8V164a1.8,1.8,0,0,0,1.8,1.8h2.6a1.7,1.7,0,0,1,1.7,1.3,35.4,35.4,0,0,0,4.5,11,1.5,1.5,0,0,1-.2,2.1l-1.8,1.9a1.7,1.7,0,0,0,0,2.6l7.2,7.2a1.9,1.9,0,0,0,2.6,0l1.8-1.8a1.7,1.7,0,0,1,2.1-.3,36.2,36.2,0,0,0,11.1,4.6,1.7,1.7,0,0,1,1.3,1.6v2.7a1.8,1.8,0,0,0,1.8,1.8h10.2a1.8,1.8,0,0,0,1.9-1.8V196a1.7,1.7,0,0,1,1.2-1.6,35.2,35.2,0,0,0,11.1-4.6,1.7,1.7,0,0,1,2.1.3l1.9,1.8a1.8,1.8,0,0,0,2.5,0l7.3-7.2a1.9,1.9,0,0,0,0-2.6l-1.9-1.9a1.8,1.8,0,0,1-.2-2.1,35.7,35.7,0,0,0,4.6-11,1.6,1.6,0,0,1,1.6-1.3h2.6A1.9,1.9,0,0,0,686.4,164Zm-41.7,23.7a28.9,28.9,0,1,1,28.9-28.9A28.9,28.9,0,0,1,644.7,187.7Z" transform="translate(-213.2 -77.6)" style="fill:none;stroke:#dee3fc;stroke-miterlimit:10;stroke-width:0.789569px"/><path d="M733.5,198.7v-7a1.2,1.2,0,0,0-1.2-1.3h-1.8a1,1,0,0,1-1.1-.8,25.6,25.6,0,0,0-3.2-7.6,1.2,1.2,0,0,1,.2-1.4l1.3-1.3a1.4,1.4,0,0,0,0-1.7l-5-5a1.4,1.4,0,0,0-1.7,0l-1.3,1.3a1.2,1.2,0,0,1-1.4.2,25.6,25.6,0,0,0-7.6-3.2,1,1,0,0,1-.8-1.1V168a1.3,1.3,0,0,0-1.3-1.2h-7a1.3,1.3,0,0,0-1.2,1.2v1.8a1.1,1.1,0,0,1-.9,1.1,25,25,0,0,0-7.5,3.2,1.4,1.4,0,0,1-1.5-.2l-1.2-1.3a1.5,1.5,0,0,0-1.8,0l-4.9,5a1.2,1.2,0,0,0,0,1.7l1.3,1.3a1.2,1.2,0,0,1,.1,1.4,25.3,25.3,0,0,0-3.1,7.6,1.1,1.1,0,0,1-1.1.8H678a1.2,1.2,0,0,0-1.2,1.3v7a1.2,1.2,0,0,0,1.2,1.2h1.8a1.2,1.2,0,0,1,1.1.9,24.8,24.8,0,0,0,3.1,7.5,1.4,1.4,0,0,1-.1,1.5l-1.3,1.2a1.3,1.3,0,0,0,0,1.8l4.9,4.9a1.3,1.3,0,0,0,1.8,0l1.2-1.3a1.4,1.4,0,0,1,1.5-.1,24.8,24.8,0,0,0,7.5,3.1,1.2,1.2,0,0,1,.9,1.1v1.8a1.3,1.3,0,0,0,1.2,1.3h7a1.3,1.3,0,0,0,1.3-1.3v-1.8a1.1,1.1,0,0,1,.8-1.1,25.3,25.3,0,0,0,7.6-3.1,1.2,1.2,0,0,1,1.4.1l1.3,1.3a1.2,1.2,0,0,0,1.7,0l5-4.9a1.5,1.5,0,0,0,0-1.8l-1.3-1.2a1.4,1.4,0,0,1-.2-1.5,25,25,0,0,0,3.2-7.5,1.1,1.1,0,0,1,1.1-.9h1.8A1.2,1.2,0,0,0,733.5,198.7Zm-28.4,15.1a18.6,18.6,0,1,1,18.6-18.6A18.6,18.6,0,0,1,705.1,213.8Z" transform="translate(-213.2 -77.6)" style="fill:#dee3fc"/><circle cx="298.7" cy="302.6" r="3.4" style="fill:#a4afff"/><path d="M494.3,383.6a2.1,2.1,0,1,1-2.1-2.1A2.1,2.1,0,0,1,494.3,383.6Z" transform="translate(-213.2 -77.6)" style="fill:#a4afff"/><rect x="250.7" y="34" width="7" height="7.03" rx="0.7" style="fill:#fff"/><rect x="260.1" y="34" width="7" height="7.03" rx="0.7" style="fill:#fff"/><rect x="269.5" y="34" width="7" height="7.03" rx="0.7" style="fill:#fff"/><rect x="729.3" y="280.7" width="7" height="7.03" rx="0.7" style="fill:#dee3fc"/><rect x="738.7" y="280.7" width="7" height="7.03" rx="0.7" style="fill:#dee3fc"/><rect x="748.1" y="280.7" width="7" height="7.03" rx="0.7" style="fill:#dee3fc"/><rect x="294.8" y="276.8" width="7" height="7.03" rx="0.7" style="fill:#dee3fc"/><rect x="304.2" y="276.8" width="7" height="7.03" rx="0.7" style="fill:#dee3fc"/><rect x="313.6" y="276.8" width="7" height="7.03" rx="0.7" style="fill:#dee3fc"/><rect x="329.5" y="263.7" width="134.6" height="58.35" rx="8.4" style="fill:none;stroke:#698bd1;stroke-linecap:round;stroke-linejoin:round;stroke-dasharray:2.8369998931884766"/><rect x="385.2" y="137.9" width="70.5" height="40.97" rx="6" style="fill:none;stroke:#0061ff;stroke-linecap:round;stroke-linejoin:round;stroke-dasharray:2.8369998931884766"/><rect x="334.3" y="188.7" width="135.1" height="65.3" rx="7.2" style="fill:#4b5a9b"/><path d="M677.2,268.2v50.9a7.2,7.2,0,0,1-7.2,7.2H549.9a7.2,7.2,0,0,1-7.2-7.2V268.2a7.2,7.2,0,0,1,7.2-7.2H670A7.2,7.2,0,0,1,677.2,268.2Z" transform="translate(-213.2 -77.6)" style="fill:#7f95f4"/><rect x="335.7" y="198.3" width="45.1" height="45.12" rx="4.9" style="fill:#fff"/><path d="M631.1,281.6H599.9a1.6,1.6,0,0,1-1.5-1.6h0a1.5,1.5,0,0,1,1.5-1.5h31.2a1.6,1.6,0,0,1,1.6,1.5h0A1.6,1.6,0,0,1,631.1,281.6Z" transform="translate(-213.2 -77.6)" style="fill:#b2c1f9"/><path d="M616.9,287.7h-17a1.5,1.5,0,0,1-1.5-1.5h0a1.6,1.6,0,0,1,1.5-1.6h17a1.5,1.5,0,0,1,1.5,1.6h0A1.5,1.5,0,0,1,616.9,287.7Z" transform="translate(-213.2 -77.6)" style="fill:#b2c1f9"/><path d="M669.1,287.7H623.2a1.6,1.6,0,0,1-1.6-1.5h0a1.6,1.6,0,0,1,1.6-1.6h45.9a1.6,1.6,0,0,1,1.5,1.6h0A1.5,1.5,0,0,1,669.1,287.7Z" transform="translate(-213.2 -77.6)" style="fill:#b2c1f9"/><path d="M626.2,293.8H599.9a1.5,1.5,0,0,1-1.5-1.5h0a1.5,1.5,0,0,1,1.5-1.5h26.3a1.5,1.5,0,0,1,1.5,1.5h0A1.5,1.5,0,0,1,626.2,293.8Z" transform="translate(-213.2 -77.6)" style="fill:#b2c1f9"/><path d="M648.5,293.8H632a1.6,1.6,0,0,1-1.6-1.5h0a1.6,1.6,0,0,1,1.6-1.5h16.5a1.5,1.5,0,0,1,1.5,1.5h0A1.5,1.5,0,0,1,648.5,293.8Z" transform="translate(-213.2 -77.6)" style="fill:#b2c1f9"/><path d="M669.1,293.8H653.9a1.6,1.6,0,0,1-1.6-1.5h0a1.6,1.6,0,0,1,1.6-1.5h15.2a1.5,1.5,0,0,1,1.5,1.5h0A1.5,1.5,0,0,1,669.1,293.8Z" transform="translate(-213.2 -77.6)" style="fill:#b2c1f9"/><path d="M669.1,300H599.9a1.6,1.6,0,0,1-1.5-1.6h0a1.5,1.5,0,0,1,1.5-1.5h69.2a1.5,1.5,0,0,1,1.5,1.5h0A1.6,1.6,0,0,1,669.1,300Z" transform="translate(-213.2 -77.6)" style="fill:#b2c1f9"/><path d="M638,306.1H599.9a1.5,1.5,0,0,1-1.5-1.5h0a1.6,1.6,0,0,1,1.5-1.6H638a1.6,1.6,0,0,1,1.5,1.6h0A1.5,1.5,0,0,1,638,306.1Z" transform="translate(-213.2 -77.6)" style="fill:#b2c1f9"/><path d="M669.1,306.1h-25a1.5,1.5,0,0,1-1.5-1.5h0a1.6,1.6,0,0,1,1.5-1.6h25a1.6,1.6,0,0,1,1.5,1.6h0A1.5,1.5,0,0,1,669.1,306.1Z" transform="translate(-213.2 -77.6)" style="fill:#b2c1f9"/><path d="M622.3,312.2H599.9a1.5,1.5,0,0,1-1.5-1.5h0a1.5,1.5,0,0,1,1.5-1.5h22.4a1.5,1.5,0,0,1,1.5,1.5h0A1.5,1.5,0,0,1,622.3,312.2Z" transform="translate(-213.2 -77.6)" style="fill:#b2c1f9"/><path d="M650.7,312.2H628.3a1.5,1.5,0,0,1-1.5-1.5h0a1.5,1.5,0,0,1,1.5-1.5h22.4a1.4,1.4,0,0,1,1.5,1.5h0A1.5,1.5,0,0,1,650.7,312.2Z" transform="translate(-213.2 -77.6)" style="fill:#b2c1f9"/><path d="M669.1,312.2h-13a1.5,1.5,0,0,1-1.5-1.5h0a1.5,1.5,0,0,1,1.5-1.5h13a1.5,1.5,0,0,1,1.5,1.5h0A1.5,1.5,0,0,1,669.1,312.2Z" transform="translate(-213.2 -77.6)" style="fill:#b2c1f9"/><path d="M631.1,318.4H599.9a1.6,1.6,0,0,1-1.5-1.6h0a1.5,1.5,0,0,1,1.5-1.5h31.2a1.6,1.6,0,0,1,1.6,1.5h0A1.6,1.6,0,0,1,631.1,318.4Z" transform="translate(-213.2 -77.6)" style="fill:#b2c1f9"/><path d="M669.1,281.6H637.9a1.6,1.6,0,0,1-1.5-1.6h0a1.5,1.5,0,0,1,1.5-1.5h31.2a1.5,1.5,0,0,1,1.5,1.5h0A1.6,1.6,0,0,1,669.1,281.6Z" transform="translate(-213.2 -77.6)" style="fill:#b2c1f9"/><path d="M677.2,268.2v2.1H542.7v-2.1a7.2,7.2,0,0,1,7.2-7.2H670A7.2,7.2,0,0,1,677.2,268.2Z" transform="translate(-213.2 -77.6)" style="fill:#0047d4"/><path d="M651.9,265.8a1.7,1.7,0,1,1-3.4,0,1.7,1.7,0,0,1,3.4,0Z" transform="translate(-213.2 -77.6)" style="fill:#dee3fc"/><path d="M660.4,265.8a1.6,1.6,0,0,1-1.7,1.7,1.6,1.6,0,0,1-1.6-1.7,1.6,1.6,0,0,1,1.6-1.6A1.6,1.6,0,0,1,660.4,265.8Z" transform="translate(-213.2 -77.6)" style="fill:#dee3fc"/><path d="M668.9,265.8a1.6,1.6,0,0,1-1.6,1.7,1.6,1.6,0,0,1-1.7-1.7,1.6,1.6,0,0,1,1.7-1.6A1.6,1.6,0,0,1,668.9,265.8Z" transform="translate(-213.2 -77.6)" style="fill:#dee3fc"/><rect x="337.3" y="137.9" width="40.9" height="40.93" rx="7.2" style="fill:none;stroke:#0061ff;stroke-miterlimit:10;stroke-width:0.895593px"/><polyline points="351.4 152.5 345.5 158.4 351.5 164.3" style="fill:none;stroke:#0061ff;stroke-linecap:round;stroke-linejoin:round;stroke-width:1.6716px"/><polyline points="364.2 152.5 370.1 158.4 364.1 164.3" style="fill:none;stroke:#0061ff;stroke-linecap:round;stroke-linejoin:round;stroke-width:1.6716px"/><line x1="360.6" y1="152.5" x2="355" y2="164.3" style="fill:none;stroke:#0061ff;stroke-linecap:round;stroke-linejoin:round;stroke-width:1.6716px"/><rect x="601.3" y="284.2" width="52.3" height="78.56" style="fill:#0061ff"/><rect x="866.8" y="361.8" width="20" height="78.56" transform="translate(1540.5 724.6) rotate(180)" style="fill:#0047d4"/><rect x="656.5" y="287.2" width="14.7" height="2.51" style="fill:#b2c1f9"/><rect x="656.5" y="292.6" width="14.7" height="2.51" style="fill:#b2c1f9"/><rect x="656.5" y="298" width="14.7" height="2.51" style="fill:#b2c1f9"/><rect x="656.5" y="303.4" width="14.7" height="2.51" style="fill:#b2c1f9"/><rect x="656.5" y="308.8" width="14.7" height="2.51" style="fill:#b2c1f9"/><rect x="656.5" y="314.2" width="14.7" height="2.51" style="fill:#b2c1f9"/><rect x="656.5" y="319.5" width="14.7" height="2.51" style="fill:#b2c1f9"/><rect x="656.5" y="324.9" width="14.7" height="2.51" style="fill:#b2c1f9"/><rect x="656.5" y="330.3" width="14.7" height="2.51" style="fill:#b2c1f9"/><rect x="656.5" y="335.7" width="14.7" height="2.51" style="fill:#b2c1f9"/><rect x="656.5" y="341.1" width="14.7" height="2.51" style="fill:#b2c1f9"/><rect x="656.5" y="346.5" width="14.7" height="2.51" style="fill:#b2c1f9"/><rect x="656.5" y="351.9" width="14.7" height="2.51" style="fill:#b2c1f9"/><rect x="656.5" y="357.2" width="14.7" height="2.51" style="fill:#b2c1f9"/><path d="M806.1,440.4h26.5a14.5,14.5,0,0,0-1.7-10.6s-2.1,1.7-8.5.5a30.5,30.5,0,0,1-4.5,3.2C816,434.4,805.4,436.5,806.1,440.4Z" transform="translate(-213.2 -77.6)" style="fill:#281616"/><path d="M807.9,365.4c1.7,10.3,9.7,44.9,13.1,65.4,6.2.5,9.2-.2,10.8-.6-.3-7.1-1-24.2-.9-31.6.1-12.7.7-29.4-4.8-38.5l-18.8,1.4q.2,1.5.3,2.4T807.9,365.4Z" transform="translate(-213.2 -77.6)" style="fill:#002c54"/><path d="M758,440.4h26.6a14.5,14.5,0,0,0-1.7-10.6s-2.2,1.7-8.6.5a30.5,30.5,0,0,1-4.5,3.2C767.9,434.4,757.3,436.5,758,440.4Z" transform="translate(-213.2 -77.6)" style="fill:#281616"/><path d="M773.5,430.2a29.1,29.1,0,0,0,10.5.9c1.5-8.2,3.7-26.3,5.7-34.8,3.1-13.2,6.2-31.3,4-37.8l-18.4-4.6C775.3,354.5,773.8,410,773.5,430.2Z" transform="translate(-213.2 -77.6)" style="fill:#052635"/><path d="M846.9,335h0c-.4-3.6-.8-6.3-.8-6.3l-20.6,5.1L808,337.7l-21.2,4.8c-7.8,1.7-12.9,7.6-11.2,15.4l1.9,9.4c10.9-.2,61.8-5,66.2-7.2S850.1,348.8,846.9,335Z" transform="translate(-213.2 -77.6)" style="fill:#052635"/><path d="M877.6,335h0a28.7,28.7,0,0,0-2.2-7.5l-19.2,6.3-17.5,3.9-21.2,4.8c-7.7,1.7-12.9,7.6-11.2,15.4l2,9.4c10.8-.2,56.1-1.7,66.1-7.2C879.2,357.4,880.8,348.8,877.6,335Z" transform="translate(-213.2 -77.6)" style="fill:#002c54"/><path d="M820,305.5s9.1-4.1,11.6,0c1.4,2.3.5,6.5-2.7,8.3s-20.7,9.2-37.3,13.4a32.5,32.5,0,0,0-1.9-4.8,87.1,87.1,0,0,0,14.9-8.3,95.2,95.2,0,0,1,15.4-8.6Z" transform="translate(-213.2 -77.6)" style="fill:#e5918f"/><path d="M822.3,277l-7.9,31.3s.8,7.9,8.8,4,13.3-28.8,13.3-28.8Z" transform="translate(-213.2 -77.6)" style="fill:#fcaf79"/><path d="M835.5,294.5l-2.8-.8-2.6-.8a45.9,45.9,0,0,1-11.4-5.6c2.3-10.2,5.1-17,7.6-21.5a.5.5,0,0,0,.2-.4l.2-.3a21.3,21.3,0,0,1,5.5-5.7l.6-.4.9,16.3.2,1.7Z" transform="translate(-213.2 -77.6)" style="fill:#fff"/><path d="M835.5,294.5l-2.8-.8-2.6-.8c1.6-11,3-17.9,3-17.9l.8,2Z" transform="translate(-213.2 -77.6)" style="fill:#c7e5f2"/><path d="M881.8,266.2c-.2,4.9-1.1,12.6-1.8,20.4-.2,2.5-.5,5-.7,7.4s-2.3,9.5-2.4,10.9c-.4,6.8-3.8,11.9-.6,22.3a18.2,18.2,0,0,1,.9,4.8c0,.7-.9,1.4-1.3,1.6s-3.9,1.3-7.1,1.7h0a172.9,172.9,0,0,1-19.7.9c-6.8,0-17-1-18.3-2.8s-.1-3.8.5-7c2.5-14.2,1.6-21.6,1.4-31.9v-.8c-.2-15.8-1.3-29.4-.5-34.3l.6-.4c1.1-.8,2.2-1.4,3.2-2l.3-.2.9-.5.4-.2c2.3-1.1,5.7-2.3,7.6-3l.6-.2h6c1.8.1,4.6.3,7.7.7h0a75.2,75.2,0,0,1,10.3,2h.1a22.1,22.1,0,0,1,8.1,5.7A26.1,26.1,0,0,1,881.8,266.2Z" transform="translate(-213.2 -77.6)" style="fill:#fff"/><path d="M876.3,327.2a18.2,18.2,0,0,1,.9,4.8c0,.7-.9,1.4-1.3,1.6s-3.9,1.3-7.1,1.7a4.8,4.8,0,0,0,3.6-4.1c0-1.3-1.7-10.1-1.2-15.8s1.4-14.7-.4-22-3.4-16.7-3.4-16.7l9.9,6,2.7,3.9c-.2,2.5-.5,5-.7,7.4S873.1,316.8,876.3,327.2Z" transform="translate(-213.2 -77.6)" style="fill:#c7e5f2"/><path d="M832.6,224.4s.9,10.3,4.3,11,2.6-3.7,2.6-3.7l-.5-4.9Z" transform="translate(-213.2 -77.6)" style="fill:#002c54"/><path d="M848.5,262c-6.8-.8-4.2-7.4-3.3-8.9l1.5-.5h0a1.2,1.2,0,0,0,.5-.8c.7-1.7.4-5.1.4-5.3h0v-.6l.3-1.2,3.5-2.7,7.5-5.9s-2,9.8-.4,16a2.5,2.5,0,0,0,1,1.5h0a1.1,1.1,0,0,0,.8.3C862.1,254.7,859.6,263.3,848.5,262Z" transform="translate(-213.2 -77.6)" style="fill:#fcaf79"/><path d="M854.4,242.2a11,11,0,0,1-7.2,9.6c.7-1.7.4-5.1.4-5.3l3-2.4Z" transform="translate(-213.2 -77.6)" style="fill:#cc6362"/><path d="M834.3,225.8s1.5,21.6,7.3,23.4a15.3,15.3,0,0,0,12.8-6.5c1.5-2,3.4-2.5,4.1-5s2.4-11.5.6-16C856.5,215.3,834.5,210.2,834.3,225.8Z" transform="translate(-213.2 -77.6)" style="fill:#fcaf79"/><path d="M859.2,218.2c-.1-3.9-4.1-5.4-4.1-5.4-3.9-1.9-12.1-1.1-20.6.8-1.9.5-4.4-.7-5.8.2s0,6.5,0,6.5c3.2,9.8,15.2,6.6,18.8,5.4.9,2.6.8,6.1,2.9,7.9s3.4,1.1,5.5.7c.3.5,1.3,1,1.5,1.7.7,2.3.6,5.9.5,8.7l1-.5C859.1,243.4,869.6,218.5,859.2,218.2Z" transform="translate(-213.2 -77.6)" style="fill:#002c54"/><path d="M840.2,233.1c.3,1.8-.6,3.4-1.9,3.7s-2.8-1.1-3.1-2.9.6-3.4,2-3.6S839.9,231.3,840.2,233.1Z" transform="translate(-213.2 -77.6)" style="fill:none;stroke:#fff;stroke-miterlimit:10;stroke-width:0.500973px"/><path d="M847.3,231.8c.3,1.8-.6,3.4-2,3.6s-2.8-1-3.1-2.8.6-3.4,2-3.6S847,230,847.3,231.8Z" transform="translate(-213.2 -77.6)" style="fill:none;stroke:#fff;stroke-miterlimit:10;stroke-width:0.500973px"/><path d="M840.2,233.1s.3-.5,2-.4" transform="translate(-213.2 -77.6)" style="fill:none;stroke:#fff;stroke-miterlimit:10;stroke-width:0.500973px"/><line x1="634.1" y1="154.6" x2="640.1" y2="153.6" style="fill:none;stroke:#fff;stroke-miterlimit:10;stroke-width:0.500973px"/><path d="M853.8,238.9c4.1,1.6,5.4-8.6,1.5-9.1s-3.1,3.8-3.1,3.8S851.4,238,853.8,238.9Z" transform="translate(-213.2 -77.6)" style="fill:#fcaf79"/><g style="opacity:0.5"><path d="M855.1,231.4a4.3,4.3,0,0,0-1,2.4v1.4c.1.4.1.9.2,1.4l-.5-.6a1.9,1.9,0,0,1-.2-.7,2.6,2.6,0,0,1-.2-1.5,2.5,2.5,0,0,1,.5-1.5A1.8,1.8,0,0,1,855.1,231.4Z" transform="translate(-213.2 -77.6)" style="fill:#cc6362"/><path d="M855.8,233.3a2.3,2.3,0,0,0-1.2.6,1.6,1.6,0,0,0-.5,1l-.7-.2a2.7,2.7,0,0,1,1-1.1A1.8,1.8,0,0,1,855.8,233.3Z" transform="translate(-213.2 -77.6)" style="fill:#cc6362"/></g><path d="M893.6,309.7h0c-1.9,2.1-8.8,3.6-12.1.7-1-.9-2.2-3.4-3.4-6.4-2.9-7.8-5.7-19.4-5.7-19.4l15.4-7.9s2,8.9,3.7,17.4c0,0,.1,0,.1.2.6,2.7,1.1,5.4,1.5,7.7h0A35.3,35.3,0,0,1,893.6,309.7Z" transform="translate(-213.2 -77.6)" style="fill:#fcaf79"/><path d="M866.6,273.8c1.5,6.2,6.1,17.9,6.1,17.9,3.3.6,7.7-.1,11.4-1.4a20.6,20.6,0,0,0,7.2-4.7s-3.1-8.7-5.9-15-4-7.7-5.1-8.8a25.7,25.7,0,0,0-6.1-4.6Z" transform="translate(-213.2 -77.6)" style="fill:#fff"/><path d="M886.1,277.8l-9.1-3.9-7.1-18.4,3,1.1h.4c1.5.8,7.5,4.3,11.6,17.1a.4.4,0,0,1,.1.3c.5,1.5.8,2.7,1,3.3h0A.4.4,0,0,1,886.1,277.8Z" transform="translate(-213.2 -77.6)" style="fill:#fff"/><path d="M893.6,309.7h0a3.2,3.2,0,0,1-1,2.2l-1.5.9a80.5,80.5,0,0,1-9.6,4.9,315.6,315.6,0,0,1-33.4,12,38.9,38.9,0,0,0-2-4.6,88.5,88.5,0,0,0,14.5-8.9c7.2-5.5,17.5-12.2,17.5-12.2l2.7-3.1s9.3-8.6,10.7-6.8c0,0,.1,0,.1.2s1,4.2,1.5,7.7h0A35.3,35.3,0,0,1,893.6,309.7Z" transform="translate(-213.2 -77.6)" style="fill:#fcaf79"/><path d="M847.1,324.5a5.5,5.5,0,0,1-3.6.7c-1.1-.2-1.5-.6-2.2-.7a20.7,20.7,0,0,1-3.8-.9c-1-.5-1.4-.5-1.4.5s2,1.8,2.6,2.1a4.4,4.4,0,0,1,1.2,1.3c.1.1-3.2,1.9-4.1,1.5a3.1,3.1,0,0,0-.2,1.3c.2.4.9.6.9.8s-.1.7,0,1.1.8.3,1,.9,0,.6.2,1.2,1,.7,1.1,1,.1.7.4.9,3.4-.7,4.5-1.2,4-4.7,7.3-6.1Z" transform="translate(-213.2 -77.6)" style="fill:#fcaf79"/><path d="M862.6,343.5H839.1v-2.3h23.5a1.1,1.1,0,0,1,1.1,1.1h0A1.1,1.1,0,0,1,862.6,343.5Z" transform="translate(-213.2 -77.6)" style="fill:#375f84"/><path d="M849.8,343.5H791a1.6,1.6,0,0,1-1.5-1.2l-12-43.3a1.4,1.4,0,0,1,1.4-1.9h56.9a3.1,3.1,0,0,1,2.9,2.1l11.9,43.2A.8.8,0,0,1,849.8,343.5Z" transform="translate(-213.2 -77.6)" style="fill:#375f84"/><path d="M847.7,343.5H788.9a1.6,1.6,0,0,1-1.5-1.2L775.3,299a1.5,1.5,0,0,1,1.5-1.9h56.9a2.9,2.9,0,0,1,2.8,2.1l12,43.2A.8.8,0,0,1,847.7,343.5Z" transform="translate(-213.2 -77.6)" style="fill:#0047d4"/><path d="M534.5,315.5l6.9-7a16.9,16.9,0,0,1,.6-3.8c.3-.6,1.3-3.1,1.8-3.3a2.1,2.1,0,0,1,1.4,0,6.2,6.2,0,0,1,1.4-.4,4,4,0,0,1,1.2.4h2a35.1,35.1,0,0,1,2.4-2.6,16.1,16.1,0,0,1,2.4-1.8c.4,0,.5.6.3,1.3a8.5,8.5,0,0,1-1.4,1.6l-3.1,4.7.8-.3,2.3-2.1c.1,0,1-.6,1.5,0s-3.3,5-3.9,5.6a34.7,34.7,0,0,1-4,2.4s-3.6,6.5-4,6.9S534.5,315.5,534.5,315.5Z" transform="translate(-213.2 -77.6)" style="fill:#fcaf79"/><path d="M541,283.2s-3.8,22.1-7.4,22.6c0,0-14.3.6-17.5-16.8-2.8-15,8.3-18.3,13.5-17.1S542.1,273.8,541,283.2Z" transform="translate(-213.2 -77.6)" style="fill:#fcaf79"/><path d="M528.3,302.3s-2,2.7-2.7,9.2a20.5,20.5,0,0,1-11.4-2,83.5,83.5,0,0,0,3.3-19.2" transform="translate(-213.2 -77.6)" style="fill:#fcaf79"/><path d="M524.3,268.2c-7.8,1.7-7.2,6.6-7.2,6.6-3.7.9-4.5,2.4-4.4,9.2s2.4,14.8,3.8,15.5,9,.7,9.6.5,3.3-6.5,2.7-7.6,0-5.3,1.8-5.5,1.5,2.6,1.5,2.6l1.4-.3,1.1-2.8c10.4.6,13-11.1,13-11.1C545.2,273.6,532.1,266.5,524.3,268.2Z" transform="translate(-213.2 -77.6)" style="fill:#002c54"/><path d="M437.5,417.5l7.9,1.1-2.6,9.3-8.6-2.2s-3.5-4.7,1.8-8.2A2.6,2.6,0,0,1,437.5,417.5Z" transform="translate(-213.2 -77.6)" style="fill:#e5918f"/><path d="M496.5,393.8l-11.6-35.3s-3.6-1.2-5.4,0c0,0-12.1,6.5-10.8,25.1.9,14.1,3.9,29.3,5.1,35.4l-31.1-1.2a10.6,10.6,0,0,0-1.3,10.5s39,10.5,44.5,11.5,9.4,1.4,11.8-.6C501.8,435.6,496.5,393.8,496.5,393.8Z" transform="translate(-213.2 -77.6)"/><path d="M474.3,417.5l7.9,1.1-2.6,9.3-8.6-2.2a5.6,5.6,0,0,1,1.8-8.2A2.6,2.6,0,0,1,474.3,417.5Z" transform="translate(-213.2 -77.6)" style="fill:#e5918f"/><path d="M471.4,422.3c-.1,1.8,1.5,3.5,1.2,3.9l-5.6,9.4s4,1.7,3.3,4.3H460.2a8.3,8.3,0,0,1-2.6-5.9,30,30,0,0,1,2.5-7.4l5.9-11.4a5.8,5.8,0,0,1,3.4.1,21.8,21.8,0,0,1,4.9,2.2S471.9,417.8,471.4,422.3Z" transform="translate(-213.2 -77.6)" style="fill:#467cdb"/><path d="M552.8,431.8c-2.5-9.4-26.1-49.3-34.1-60.1-16.4-7.2-33.8-13.2-33.8-13.2-7.3,1.7-10.8,16.3-6.7,26,2.8,6.7,20.6,23.4,31.5,33.3H479.4s-3.5,5.3-.3,10.4c0,0,50.4,11.4,54.8,12.1s14.4,0,14.4,0S554.9,439.6,552.8,431.8Z" transform="translate(-213.2 -77.6)" style="fill:#002c54"/><path d="M434.6,422.3c-.1,1.8,1.5,3.5,1.2,3.9l-5.6,9.4s4,1.7,3.3,4.3H423.4a8.3,8.3,0,0,1-2.6-5.9,30,30,0,0,1,2.5-7.4l5.9-11.4a5.8,5.8,0,0,1,3.4.1,21.8,21.8,0,0,1,4.9,2.2S435.1,417.8,434.6,422.3Z" transform="translate(-213.2 -77.6)" style="fill:#467cdb"/><path d="M590.8,308.7l-16.3,28.6-11.6-11.6L553.2,340l2.8,1.4-1,.8s22.5,10.9,25.2,8.5,15.2-38.8,15.2-38.8Z" transform="translate(-213.2 -77.6)" style="fill:#fcaf79"/><path d="M564.9,327.5s-3,12.9-9.2,19.1l-15.7-6s-7.3,12.3-14.4,21.7c-2.7,3.6-3.7,8.7-6.9,9.4l-.6-.2c-8.7-2.6-21.6.1-32.2-3.8s-9.5-6.8-9.5-6.8a149.7,149.7,0,0,0,11.2-26.4c1.8-6.1,3-11.6,3.9-16a18.2,18.2,0,0,1,15.4-14.7h.3c8.9-1.1,32.2,1.6,36.7,3.6S564.9,327.5,564.9,327.5Z" transform="translate(-213.2 -77.6)" style="fill:#467cdb"/><path d="M540,340.6s-7.3,12.3-14.4,21.7c-2.7,3.6-3.7,8.7-6.9,9.4,1.4-.5,3.8-7.9,4.6-9.6s2.2-3.3,5.1-9.2,6.7-14.4,6.7-14.4Z" transform="translate(-213.2 -77.6)" style="fill:#5996ef"/><path d="M509.7,417.8a23.9,23.9,0,0,1,8,0,25.7,25.7,0,0,1,4,.8,16.9,16.9,0,0,1,3.7,1.5l-3.9-.7-3.9-.6Z" transform="translate(-213.2 -77.6)"/><path d="M602.9,298.2a15.4,15.4,0,0,0-2.7,1.9l.9-1.8a16.3,16.3,0,0,0,1.7-1.8c.4-.6.2-1.3-.2-1.3a13.9,13.9,0,0,0-2.5,1.8l.2-.3a13.4,13.4,0,0,0,1.6-1.9c.5-.6.2-1.3-.1-1.3s-3.2,2.3-3.2,2.3l-1.3,1.9,1-2.1a10.3,10.3,0,0,0,.9-1.3c.4-.8.1-1-.1-1.2s-2.1,1.1-2.6,1.7a28.5,28.5,0,0,0-2.1,3.2l-1.6,3.3c-.1-1-.3-2.6-.4-3.7s-1.5-1.8-1.5-1.1-.9,4.3-.7,6.3.5,3.2.6,4.3-1,3.2-1,3.2,4.6,2.8,5.3,2a37.4,37.4,0,0,0,3.1-4,18.6,18.6,0,0,0,1.8-4l1.4-3,1.7-1.8C603.5,298.8,603.3,298.2,602.9,298.2Z" transform="translate(-213.2 -77.6)" style="fill:#fcaf79"/><path d="M942.7,207.1H889.6a6.1,6.1,0,0,0-6.1,6.1v12.6a6.2,6.2,0,0,0,5.3,6.1.8.8,0,0,1,.8.9v6.8c0,.4.5.6.7.3l5.5-7.6a.8.8,0,0,1,.7-.4h46.2a6.1,6.1,0,0,0,6.1-6.1V213.2A6.1,6.1,0,0,0,942.7,207.1Z" transform="translate(-213.2 -77.6)" style="fill:none;stroke:#fff;stroke-miterlimit:10;stroke-width:0.895593px"/><path d="M897.7,219.5a2,2,0,1,1-2-2A2,2,0,0,1,897.7,219.5Z" transform="translate(-213.2 -77.6)" style="fill:none;stroke:#fff;stroke-miterlimit:10;stroke-width:0.895593px"/><path d="M908,219.5a2,2,0,0,1-2.1,2,2,2,0,0,1,0-4A2,2,0,0,1,908,219.5Z" transform="translate(-213.2 -77.6)" style="fill:none;stroke:#fff;stroke-miterlimit:10;stroke-width:0.895593px"/><path d="M918.2,219.5a2,2,0,0,1-2.1,2,2,2,0,1,1,0-4A2,2,0,0,1,918.2,219.5Z" transform="translate(-213.2 -77.6)" style="fill:none;stroke:#fff;stroke-miterlimit:10;stroke-width:0.895593px"/><path d="M928.4,219.5a2,2,0,0,1-2.1,2,2,2,0,0,1,0-4A2,2,0,0,1,928.4,219.5Z" transform="translate(-213.2 -77.6)" style="fill:none;stroke:#fff;stroke-miterlimit:10;stroke-width:0.895593px"/><path d="M938.6,219.5a2,2,0,0,1-2,2,2,2,0,1,1,0-4A2,2,0,0,1,938.6,219.5Z" transform="translate(-213.2 -77.6)" style="fill:none;stroke:#fff;stroke-miterlimit:10;stroke-width:0.895593px"/><path d="M433.4,232h53a6.2,6.2,0,0,1,6.2,6.2v12.5a6.1,6.1,0,0,1-5.4,6.1,1.1,1.1,0,0,0-.8.9v6.9a.4.4,0,0,1-.7.2l-5.4-7.5a.8.8,0,0,0-.7-.4H433.4a6.2,6.2,0,0,1-6.2-6.2V238.2A6.2,6.2,0,0,1,433.4,232Z" transform="translate(-213.2 -77.6)" style="fill:none;stroke:#fff;stroke-miterlimit:10;stroke-width:0.895593px"/><path d="M478.3,244.4a2,2,0,1,0,4,0,2,2,0,0,0-4,0Z" transform="translate(-213.2 -77.6)" style="fill:none;stroke:#fff;stroke-miterlimit:10;stroke-width:0.895593px"/><path d="M468.1,244.4a2,2,0,1,0,4,0,2,2,0,1,0-4,0Z" transform="translate(-213.2 -77.6)" style="fill:none;stroke:#fff;stroke-miterlimit:10;stroke-width:0.895593px"/><path d="M457.9,244.4a2,2,0,1,0,4,0,2,2,0,1,0-4,0Z" transform="translate(-213.2 -77.6)" style="fill:none;stroke:#fff;stroke-miterlimit:10;stroke-width:0.895593px"/><path d="M447.7,244.4a2,2,0,1,0,4,0,2,2,0,0,0-4,0Z" transform="translate(-213.2 -77.6)" style="fill:none;stroke:#fff;stroke-miterlimit:10;stroke-width:0.895593px"/><path d="M437.5,244.4a2,2,0,1,0,4,0,2,2,0,1,0-4,0Z" transform="translate(-213.2 -77.6)" style="fill:none;stroke:#fff;stroke-miterlimit:10;stroke-width:0.895593px"/><path d="M843.8,178.2H747.1a9.7,9.7,0,0,1-9.6-9.7h0a9.7,9.7,0,0,1,9.6-9.7h96.7a9.7,9.7,0,0,1,9.7,9.7h0A9.7,9.7,0,0,1,843.8,178.2Z" transform="translate(-213.2 -77.6)" style="fill:#202020;stroke:#fff;stroke-miterlimit:10;stroke-width:0.895593px"/><path d="M842.4,167.8a5.2,5.2,0,1,1-5.1-5.1A5.1,5.1,0,0,1,842.4,167.8Z" transform="translate(-213.2 -77.6)" style="fill:none;stroke:#fff;stroke-miterlimit:10;stroke-width:1.6716px"/><line x1="627.7" y1="93.9" x2="630.5" y2="96.7" style="fill:none;stroke:#fff;stroke-linecap:round;stroke-miterlimit:10;stroke-width:1.6716px"/><rect x="452.1" y="323.5" width="39.7" height="39.75" rx="7.7" style="fill:#193091"/><rect x="444.8" y="323.5" width="39.7" height="39.75" rx="7.7" style="fill:#0061ff"/><path d="M673.2,413.5l11.4,6.5a1.1,1.1,0,0,1,0,1.9l-11.4,6.6a1.1,1.1,0,0,1-1.6-1V414.4A1,1,0,0,1,673.2,413.5Z" transform="translate(-213.2 -77.6)" style="fill:#fff"/><rect x="119.1" y="312.4" width="52" height="51.96" rx="10.1" style="fill:#193091"/><rect x="109.7" y="312.4" width="52" height="51.96" rx="10.1" style="fill:#0061ff"/><path d="M355.1,402.8a6.3,6.3,0,1,1-6.2-6.3A6.2,6.2,0,0,1,355.1,402.8Z" transform="translate(-213.2 -77.6)" style="fill:#fff"/><path d="M361.9,423.9v9.2a1.5,1.5,0,0,1-1.5,1.5h-23a1.4,1.4,0,0,1-1.5-1.5v-9.2a13,13,0,0,1,13-13h0A13,13,0,0,1,361.9,423.9Z" transform="translate(-213.2 -77.6)" style="fill:#fff"/><path d="M757.4,249.3H737a1.6,1.6,0,0,1-1.5-1.6h0a1.5,1.5,0,0,1,1.5-1.5h20.4a1.6,1.6,0,0,1,1.6,1.5h0A1.6,1.6,0,0,1,757.4,249.3Z" transform="translate(-213.2 -77.6)" style="fill:#f0f4ff"/><path d="M777.9,249.3H763.1a1.6,1.6,0,0,1-1.5-1.6h0a1.5,1.5,0,0,1,1.5-1.5h14.8a1.5,1.5,0,0,1,1.5,1.5h0A1.6,1.6,0,0,1,777.9,249.3Z" transform="translate(-213.2 -77.6)" style="fill:#f0f4ff"/><path d="M745.7,256H737a1.5,1.5,0,0,1-1.5-1.5h0A1.5,1.5,0,0,1,737,253h8.7a1.5,1.5,0,0,1,1.5,1.5h0A1.5,1.5,0,0,1,745.7,256Z" transform="translate(-213.2 -77.6)" style="fill:#f0f4ff"/><path d="M777.9,256H750.8a1.5,1.5,0,0,1-1.5-1.5h0a1.5,1.5,0,0,1,1.5-1.5h27.1a1.5,1.5,0,0,1,1.5,1.5h0A1.5,1.5,0,0,1,777.9,256Z" transform="translate(-213.2 -77.6)" style="fill:#f0f4ff"/><path d="M763.9,262.8H737a1.6,1.6,0,0,1-1.5-1.6h0a1.5,1.5,0,0,1,1.5-1.5h26.9a1.6,1.6,0,0,1,1.6,1.5h0A1.6,1.6,0,0,1,763.9,262.8Z" transform="translate(-213.2 -77.6)" style="fill:#f0f4ff"/><path d="M777.9,262.8h-8.7a1.6,1.6,0,0,1-1.5-1.6h0a1.5,1.5,0,0,1,1.5-1.5h8.7a1.5,1.5,0,0,1,1.5,1.5h0A1.6,1.6,0,0,1,777.9,262.8Z" transform="translate(-213.2 -77.6)" style="fill:#f0f4ff"/><rect x="140.4" y="224.8" width="79" height="43.65" rx="3.8" style="fill:#0047d4"/><line x1="143.7" y1="230.7" x2="216" y2="230.7" style="fill:none;stroke:#fff;stroke-linecap:round;stroke-miterlimit:10;stroke-width:0.895593px"/><circle cx="214.1" cy="227.7" r="0.9" style="fill:#fff"/><circle cx="209.5" cy="227.7" r="0.9" style="fill:#fff"/><circle cx="205" cy="227.7" r="0.9" style="fill:#fff"/><path d="M370.4,314.2H358.2A1.2,1.2,0,0,1,357,313h0a1.2,1.2,0,0,1,1.2-1.2h12.2a1.2,1.2,0,0,1,1.3,1.2h0A1.2,1.2,0,0,1,370.4,314.2Z" transform="translate(-213.2 -77.6)" style="fill:#fff"/><path d="M370.4,319.8H358.2a1.2,1.2,0,0,1-1.2-1.2h0a1.2,1.2,0,0,1,1.2-1.2h12.2a1.2,1.2,0,0,1,1.3,1.2h0A1.3,1.3,0,0,1,370.4,319.8Z" transform="translate(-213.2 -77.6)" style="fill:#fff"/><path d="M370.4,325.4H358.2a1.2,1.2,0,0,1-1.2-1.2h0a1.2,1.2,0,0,1,1.2-1.3h12.2a1.3,1.3,0,0,1,1.3,1.3h0A1.3,1.3,0,0,1,370.4,325.4Z" transform="translate(-213.2 -77.6)" style="fill:#fff"/><path d="M370.4,330.9H358.2a1.2,1.2,0,0,1-1.2-1.2h0a1.2,1.2,0,0,1,1.2-1.2h12.2a1.3,1.3,0,0,1,1.3,1.2h0A1.2,1.2,0,0,1,370.4,330.9Z" transform="translate(-213.2 -77.6)" style="fill:#fff"/><path d="M370.4,336.5H358.2a1.2,1.2,0,0,1-1.2-1.2h0a1.2,1.2,0,0,1,1.2-1.2h12.2a1.3,1.3,0,0,1,1.3,1.2h0A1.2,1.2,0,0,1,370.4,336.5Z" transform="translate(-213.2 -77.6)" style="fill:#fff"/><path d="M370.4,342.1H358.2a1.2,1.2,0,0,1-1.2-1.2h0a1.2,1.2,0,0,1,1.2-1.2h12.2a1.2,1.2,0,0,1,1.3,1.2h0A1.2,1.2,0,0,1,370.4,342.1Z" transform="translate(-213.2 -77.6)" style="fill:#fff"/><path d="M428,314.2H375.2A1.2,1.2,0,0,1,374,313h0a1.2,1.2,0,0,1,1.2-1.2H428a1.2,1.2,0,0,1,1.2,1.2h0A1.2,1.2,0,0,1,428,314.2Z" transform="translate(-213.2 -77.6)" style="fill:#6589d1"/><path d="M428,319.8H375.2a1.2,1.2,0,0,1-1.2-1.2h0a1.2,1.2,0,0,1,1.2-1.2H428a1.2,1.2,0,0,1,1.2,1.2h0A1.2,1.2,0,0,1,428,319.8Z" transform="translate(-213.2 -77.6)" style="fill:#6589d1"/><path d="M428,325.4H375.2a1.2,1.2,0,0,1-1.2-1.2h0a1.2,1.2,0,0,1,1.2-1.3H428a1.2,1.2,0,0,1,1.2,1.3h0A1.2,1.2,0,0,1,428,325.4Z" transform="translate(-213.2 -77.6)" style="fill:#6589d1"/><path d="M428,330.9H375.2a1.2,1.2,0,0,1-1.2-1.2h0a1.2,1.2,0,0,1,1.2-1.2H428a1.2,1.2,0,0,1,1.2,1.2h0A1.2,1.2,0,0,1,428,330.9Z" transform="translate(-213.2 -77.6)" style="fill:#6589d1"/><path d="M428,336.5H375.2a1.2,1.2,0,0,1-1.2-1.2h0a1.2,1.2,0,0,1,1.2-1.2H428a1.2,1.2,0,0,1,1.2,1.2h0A1.2,1.2,0,0,1,428,336.5Z" transform="translate(-213.2 -77.6)" style="fill:#6589d1"/><path d="M428,342.1H375.2a1.2,1.2,0,0,1-1.2-1.2h0a1.2,1.2,0,0,1,1.2-1.2H428a1.2,1.2,0,0,1,1.2,1.2h0A1.2,1.2,0,0,1,428,342.1Z" transform="translate(-213.2 -77.6)" style="fill:#6589d1"/><circle cx="887.3" cy="110.5" r="32.5" transform="translate(359.9 870.1) rotate(-76.5)" style="fill:none;stroke:#dee3fc;stroke-miterlimit:10;stroke-width:0.789569px"/><circle cx="887.3" cy="110.5" r="28.3" transform="translate(-182.1 290.9) rotate(-23.9)" style="fill:#0061ff"/><path d="M889.9,110.5a2.6,2.6,0,1,1-2.6-2.6A2.6,2.6,0,0,1,889.9,110.5Z" transform="translate(-213.2 -77.6)" style="fill:#fff"/><path d="M887.1,110h0a.8.8,0,0,1-1.1-.3l-8.3-15a.7.7,0,0,1,.3-1.1h0a.8.8,0,0,1,1.1.3l8.3,15A.8.8,0,0,1,887.1,110Z" transform="translate(-213.2 -77.6)" style="fill:#fff"/><path d="M887.8,110.9h0a.8.8,0,0,1,1.1,0l7.2,7.2a.8.8,0,0,1,0,1.1h0a.9.9,0,0,1-1.2,0l-7.1-7.2A.7.7,0,0,1,887.8,110.9Z" transform="translate(-213.2 -77.6)" style="fill:#fff"/><line x1="674.3" y1="10.3" x2="674.3" y2="7" style="fill:none;stroke:#fff;stroke-linecap:round;stroke-miterlimit:10;stroke-width:2px"/><line x1="696.7" y1="33.1" x2="700" y2="33.1" style="fill:none;stroke:#fff;stroke-linecap:round;stroke-miterlimit:10;stroke-width:2px"/><line x1="673.9" y1="55.5" x2="673.9" y2="58.8" style="fill:none;stroke:#fff;stroke-linecap:round;stroke-miterlimit:10;stroke-width:2px"/><line x1="651.5" y1="32.7" x2="648.2" y2="32.7" style="fill:none;stroke:#fff;stroke-linecap:round;stroke-miterlimit:10;stroke-width:2px"/><g style="opacity:0.5"><line x1="663" y1="13.2" x2="661.3" y2="10.4" style="fill:none;stroke:#dee3fc;stroke-linecap:round;stroke-miterlimit:10"/><line x1="693.8" y1="21.7" x2="696.6" y2="20.1" style="fill:none;stroke:#dee3fc;stroke-linecap:round;stroke-miterlimit:10"/><line x1="685.3" y1="52.6" x2="686.9" y2="55.4" style="fill:none;stroke:#dee3fc;stroke-linecap:round;stroke-miterlimit:10"/><line x1="654.4" y1="44.1" x2="651.6" y2="45.7" style="fill:none;stroke:#dee3fc;stroke-linecap:round;stroke-miterlimit:10"/></g><g style="opacity:0.5"><line x1="654.6" y1="21.4" x2="651.8" y2="19.8" style="fill:none;stroke:#dee3fc;stroke-linecap:round;stroke-miterlimit:10"/><line x1="685.6" y1="13.4" x2="687.2" y2="10.6" style="fill:none;stroke:#dee3fc;stroke-linecap:round;stroke-miterlimit:10"/><line x1="693.6" y1="44.4" x2="696.4" y2="46" style="fill:none;stroke:#dee3fc;stroke-linecap:round;stroke-miterlimit:10"/><line x1="662.7" y1="52.4" x2="661" y2="55.2" style="fill:none;stroke:#dee3fc;stroke-linecap:round;stroke-miterlimit:10"/></g><rect x="93.6" y="141.6" width="54.8" height="54.83" rx="9.6" style="fill:#193091"/><rect x="89.4" y="136.9" width="54.8" height="54.83" rx="7.7" style="fill:#0061ff"/><path d="M339.5,235.6h-.3v-3.1a9.3,9.3,0,1,0-18.6,0v3.1h-.1a2.6,2.6,0,0,0-2.6,2.7v11.8a2.6,2.6,0,0,0,2.6,2.6h19a2.7,2.7,0,0,0,2.7-2.6V238.3A2.7,2.7,0,0,0,339.5,235.6Zm-16.6-3.1a7,7,0,0,1,14,0v3.1h-14Z" transform="translate(-213.2 -77.6)" style="fill:#dee3fc"/><path d="M333.1,241.7a3.1,3.1,0,0,0-3.7-3,3.1,3.1,0,0,0-2.3,2.4,2.9,2.9,0,0,0,1.4,3.2.9.9,0,0,1,.3.7l-.6,1.9a1.9,1.9,0,1,0,3.6,0l-.5-1.9a.4.4,0,0,1,.2-.6A3,3,0,0,0,333.1,241.7Z" transform="translate(-213.2 -77.6)" style="fill:#7e89fd"/><path d="M341,256.9H319a1.1,1.1,0,0,1-1.1-1.2h0a1.1,1.1,0,0,1,1.1-1.1h22a1.1,1.1,0,0,1,1.2,1.1h0A1.2,1.2,0,0,1,341,256.9Z" transform="translate(-213.2 -77.6)" style="fill:#dee3fc"/><path d="M341,260.7H319a1.1,1.1,0,0,1-1.1-1.1h0a1.1,1.1,0,0,1,1.1-1.2h22a1.2,1.2,0,0,1,1.2,1.2h0A1.1,1.1,0,0,1,341,260.7Z" transform="translate(-213.2 -77.6)" style="fill:#dee3fc"/><rect x="693.2" y="228.7" width="32.3" height="32.28" rx="5.6" style="fill:#193091"/><rect x="690.7" y="225.9" width="32.3" height="32.28" rx="4.5" style="fill:#0061ff"/><path d="M913.5,329.2h-.3a.9.9,0,0,1-.6-1.2l4.8-17.3a1,1,0,0,1,1.3-.7,1,1,0,0,1,.7,1.2l-4.9,17.3A1,1,0,0,1,913.5,329.2Z" transform="translate(-213.2 -77.6)" style="fill:#fff"/><path d="M921.7,329.2h-.3a1.1,1.1,0,0,1-.7-1.2l4.9-17.3a.9.9,0,0,1,1.2-.7.9.9,0,0,1,.7,1.2l-4.9,17.3A1,1,0,0,1,921.7,329.2Z" transform="translate(-213.2 -77.6)" style="fill:#fff"/><path d="M928.7,316.7H911.4a1.1,1.1,0,0,1-1-1,1,1,0,0,1,1-1h17.3a1,1,0,0,1,1,1A1.1,1.1,0,0,1,928.7,316.7Z" transform="translate(-213.2 -77.6)" style="fill:#fff"/><path d="M928.7,324.6H911.4a1.1,1.1,0,0,1-1-1,1,1,0,0,1,1-1h17.3a1,1,0,0,1,1,1A1.1,1.1,0,0,1,928.7,324.6Z" transform="translate(-213.2 -77.6)" style="fill:#fff"/><path d="M513.4,236H500.9a1.4,1.4,0,0,1-1.4-1.4h0a1.3,1.3,0,0,1,1.4-1.3h12.5a1.3,1.3,0,0,1,1.3,1.3h0A1.3,1.3,0,0,1,513.4,236Z" transform="translate(-213.2 -77.6)" style="fill:#f0f4ff"/><path d="M525.9,242.1h-25a1.4,1.4,0,0,1-1.4-1.4h0a1.4,1.4,0,0,1,1.4-1.4h25a1.4,1.4,0,0,1,1.4,1.4h0A1.4,1.4,0,0,1,525.9,242.1Z" transform="translate(-213.2 -77.6)" style="fill:#f0f4ff"/><path d="M503.8,248.2h-2.9a1.4,1.4,0,0,1-1.4-1.4h0a1.4,1.4,0,0,1,1.4-1.4h2.9a1.4,1.4,0,0,1,1.4,1.4h0A1.4,1.4,0,0,1,503.8,248.2Z" transform="translate(-213.2 -77.6)" style="fill:#f0f4ff"/><path d="M525.9,248.2H508.5a1.4,1.4,0,0,1-1.4-1.4h0a1.4,1.4,0,0,1,1.4-1.4h17.4a1.4,1.4,0,0,1,1.4,1.4h0A1.4,1.4,0,0,1,525.9,248.2Z" transform="translate(-213.2 -77.6)" style="fill:#f0f4ff"/><path d="M525.9,236h-7.5a1.4,1.4,0,0,1-1.4-1.4h0a1.3,1.3,0,0,1,1.4-1.3h7.5a1.3,1.3,0,0,1,1.4,1.3h0A1.4,1.4,0,0,1,525.9,236Z" transform="translate(-213.2 -77.6)" style="fill:#f0f4ff"/><path d="M741.8,333.3a8.5,8.5,0,0,0-4.5,1.3,9.3,9.3,0,0,0-18.6,1v1h-1.3a7.2,7.2,0,0,0,0,14.3h24.4a8.8,8.8,0,0,0,0-17.5Z" transform="translate(-213.2 -77.6)" style="fill:#fff"/><path d="M243.5,385.4a10.2,10.2,0,0,1,.1-3.9,38.7,38.7,0,0,0-.4-21.1c-4.7-14.6-23.6-27.5-23.6-27.5s5.1,21.5,9.4,30.7c3.1,6.7,8.5,14.3,11.5,18.3a8.6,8.6,0,0,1,1.6,3.8,153.4,153.4,0,0,1,2.6,30.3h1.5A163,163,0,0,0,243.5,385.4Z" transform="translate(-213.2 -77.6)" style="fill:#dee3fc"/><path d="M258.6,371.7a164.7,164.7,0,0,0,5.5-25.9s-16.9,14-18.3,24.9a36.8,36.8,0,0,0,1.1,15.1,9.4,9.4,0,0,1,.4,4.1,135.5,135.5,0,0,0-.3,28.3h1.2a151.5,151.5,0,0,1,.2-26.6,10.8,10.8,0,0,1,2.4-5.7A44.4,44.4,0,0,0,258.6,371.7Z" transform="translate(-213.2 -77.6)" style="fill:#b4c1ef"/><path d="M275.9,345.3s-18.3,6.8-23.1,21.7a40.2,40.2,0,0,0-.4,21.8,8.1,8.1,0,0,1,0,3.8,167.9,167.9,0,0,0-4.4,35.2h1.5a169.4,169.4,0,0,1,4.2-34.5,12.2,12.2,0,0,1,2.2-4.6c3.1-4.2,8.4-11.8,11.5-18.4C271.7,360.9,275.9,345.3,275.9,345.3Z" transform="translate(-213.2 -77.6)" style="fill:#dee3fc"/><path d="M243.6,408.3a53.1,53.1,0,0,0-4.2-16.6,6.3,6.3,0,0,1-.5-3,25.6,25.6,0,0,0-.4-8.9c-1.5-7.4-11.2-23.2-25.3-24.1a101.1,101.1,0,0,1,7.4,14.3c3.2,8.3,7.7,16.9,15.2,20.3a5.3,5.3,0,0,1,2.9,3,48.5,48.5,0,0,1,3.6,15.1Z" transform="translate(-213.2 -77.6)" style="fill:#b4c1ef"/><path d="M234.1,440.4h23.2l6-36.9a2.6,2.6,0,0,0-2.6-3.1h-30a2.7,2.7,0,0,0-2.7,3.1Z" transform="translate(-213.2 -77.6)" style="fill:#dee3fc"/><circle cx="475.2" cy="376.6" r="3.4" style="fill:#202020"/></svg>